<?xml version="1.0" standalone="no"?>
<!DOCTYPE svg PUBLIC "-//W3C//DTD SVG 20010904//EN"
 "http://www.w3.org/TR/2001/REC-SVG-20010904/DTD/svg10.dtd">
<svg version="1.0" xmlns="http://www.w3.org/2000/svg"
 width="32.000000pt" height="32.000000pt" viewBox="0 0 32.000000 32.000000"
 preserveAspectRatio="xMidYMid meet">

<g transform="translate(0.000000,32.000000) scale(0.100000,-0.100000)"
fill="#000000" stroke="none">
<path d="M95 306 c-101 -44 -125 -178 -46 -257 65 -65 157 -65 222 0 124 124
-15 327 -176 257z m135 -16 c45 -23 80 -80 80 -130 0 -76 -74 -150 -150 -150
-50 0 -107 35 -130 80 -25 50 -25 90 0 140 37 73 124 99 200 60z"/>
<path d="M105 167 c-14 -24 -25 -47 -25 -50 0 -4 25 -7 55 -7 53 0 55 1 80 43
14 24 25 47 25 50 0 4 -25 7 -55 7 -53 0 -55 -1 -80 -43z"/>
</g>
</svg>
