<?xml version="1.0" standalone="no"?>
<!DOCTYPE svg PUBLIC "-//W3C//DTD SVG 20010904//EN"
 "http://www.w3.org/TR/2001/REC-SVG-20010904/DTD/svg10.dtd">
<svg version="1.0" xmlns="http://www.w3.org/2000/svg"
 width="64.000000pt" height="64.000000pt" viewBox="0 0 64.000000 64.000000"
 preserveAspectRatio="xMidYMid meet">

<g transform="translate(0.000000,64.000000) scale(0.100000,-0.100000)"
fill="#000000" stroke="none">
<path d="M245 631 c-90 -23 -175 -93 -216 -178 -33 -69 -33 -197 0 -266 30
-62 96 -128 158 -158 69 -33 197 -33 266 0 62 30 128 96 158 158 33 69 33 197
0 266 -30 62 -97 128 -157 156 -51 24 -159 36 -209 22z m197 -39 c59 -26 124
-91 151 -151 30 -64 30 -178 0 -242 -27 -60 -92 -125 -152 -152 -64 -30 -178
-30 -242 0 -129 59 -202 206 -169 342 43 180 242 278 412 203z"/>
<path d="M202 320 l-52 -100 117 0 118 0 53 100 52 100 -117 0 -118 0 -53
-100z"/>
</g>
</svg>
