<?xml version="1.0" encoding="utf-8"?>
<!-- Generator: Adobe Illustrator 19.0.0, SVG Export Plug-In . SVG Version: 6.00 Build 0)  -->
<svg version="1.1" id="Layer_1" xmlns="http://www.w3.org/2000/svg" xmlns:xlink="http://www.w3.org/1999/xlink" x="0px" y="0px"
	 viewBox="0 0 500 500" style="enable-background:new 0 0 500 500;" xml:space="preserve">
<style type="text/css">
	.st0{fill:#6399A8;}
	.st1{fill:#201D1C;}
</style>
<g id="XMLID_1_">
	<polyline id="XMLID_3_" class="st0" points="119.9,266.5 67.5,266.5 92,221.4 144.3,221.4 119.9,266.5 	"/>
	<path id="XMLID_6_" class="st1" d="M159.9,238.6c-5.9,0-8.9,4.6-8.9,11.6c0,6.6,3.2,11.5,8.9,11.5c6.4,0,8.8-5.8,8.8-11.5
		C168.6,244.3,165.6,238.6,159.9,238.6 M144.3,221.4h7v16.7h0.1c1.9-3.2,5.9-5.1,9.4-5.1c10,0,14.8,7.9,14.8,17.4
		c0,8.8-4.3,17.1-13.7,17.1c-4.3,0-8.9-1.1-11-5.4h-0.1v4.5h-6.6L144.3,221.4L144.3,221.4"/>
	<path id="XMLID_9_" class="st1" d="M213.2,261.7c-4,0-4.4,0-4.7,0c-1.3,0-1.7-0.7-1.7-2.5v-16.8c0-6.9-6.5-9.5-12.7-9.5
		c-7,0-13.9,2.5-14.4,10.9h7c0.3-3.5,3.1-5.2,7-5.2c2.8,0,6.6,0.7,6.6,4.4c0,4.2-4.5,3.7-9.5,4.6c-5.9,0.7-12.2,2-12.2,10.2
		c0,6.4,5.1,9.6,10.8,9.6c3.7,0,8.2-1.2,11-4c0.5,3,2.6,4,5.4,4l7.7-0.5L213.2,261.7z M199.8,255.5c0,4.6-4.8,6.2-7.8,6.2
		c-2.5,0-6.4-1-6.4-4.2c0-3.8,2.7-4.9,5.7-5.4c3.1-0.6,6.4-0.5,8.6-2V255.5z"/>
	<path id="XMLID_10_" class="st1" d="M229.7,232.9c-4.2,0-7.8,2.2-9.9,5.8l-0.1-0.1v-4.8h-6.6l0,27.9l0.3,5.3l6.7-0.4v-19.3
		c0-4.8,3-8.6,7.7-8.6c4.1,0,6.1,2.2,6.2,7.3v20.6h7v-22.5C240.9,236.7,236.6,232.9,229.7,232.9"/>
	<path id="XMLID_13_" class="st1" d="M261.3,261.7c6.2,0,8.9-5.9,8.9-11.6c0-7.2-3.4-11.5-8.8-11.5c-6.6,0-8.9,6-8.9,11.9
		C252.5,256.2,255.2,261.7,261.3,261.7 M276.9,266.6h-6.6v-4.4h-0.1c-1.8,3.7-5.8,5.3-9.8,5.3c-10,0-14.8-7.7-14.8-17.5
		c0-11.8,6.8-17,13.7-17c4,0,8.4,1.5,10.5,5.1h0.1v-16.7h7L276.9,266.6L276.9,266.6"/>
	<path id="XMLID_14_" class="st1" d="M304.6,244.8c-0.6-4-3.4-6.1-7.2-6.1c-3.6,0-8.7,2-8.7,11.9c0,5.4,2.3,11.2,8.4,11.2
		c4,0,6.9-2.8,7.5-7.5h7c-1.3,8.5-6.4,13.2-14.5,13.2c-9.9,0-15.4-7.3-15.4-16.9c0-9.9,5.2-17.6,15.6-17.6c7.3,0,13.6,3.8,14.3,11.8
		L304.6,244.8L304.6,244.8"/>
	<path id="XMLID_17_" class="st1" d="M348.9,261.7c-4,0-4.4,0-4.7,0c-1.3,0-1.7-0.7-1.7-2.5v-16.8c0-6.9-6.5-9.5-12.7-9.5
		c-7,0-13.9,2.5-14.4,10.9h7c0.3-3.5,3.1-5.2,7-5.2c2.8,0,6.6,0.7,6.6,4.4c0,4.2-4.5,3.7-9.5,4.6c-5.9,0.7-12.2,2-12.2,10.2
		c0,6.4,5.1,9.6,10.8,9.6c3.7,0,8.2-1.2,11-4c0.5,3,2.6,4,5.4,4l7.7-0.5L348.9,261.7z M335.6,255.5c0,4.6-4.8,6.2-7.8,6.2
		c-2.5,0-6.4-1-6.4-4.2c0-3.8,2.7-4.9,5.7-5.4c3.1-0.6,6.4-0.5,8.6-2V255.5z"/>
	<path id="XMLID_18_" class="st1" d="M384.2,232.9c-4.6,0-7.6,2.1-9.9,5.4c-1.4-3.7-5-5.4-8.9-5.4c-5,0-7.7,2.2-9.7,5.4h-0.2v-4.6
		h-6.6v27.9l0.3,5.3l6.7-0.4v-19.4c0-5.4,3.3-8.5,6.9-8.5c4.2,0,5.6,2.4,5.6,6.9v21h7v-19.2c0-5.5,2-8.7,6.7-8.7
		c5.4,0,5.8,3.6,5.8,8.8v19.1h7V244C394.8,236,390.9,232.9,384.2,232.9"/>
	<path id="XMLID_21_" class="st1" d="M416.8,238.6c-5.9,0-8.9,4.6-8.9,11.6c0,6.6,3.2,11.5,8.9,11.5c6.4,0,8.8-5.8,8.8-11.5
		C425.5,244.3,422.5,238.6,416.8,238.6 M401.1,233.8h6.6v4.4h0.1c2-3.7,5.8-5.3,9.8-5.3c10,0,14.8,7.9,14.8,17.4
		c0,8.8-4.3,17.1-13.7,17.1c-4,0-8.4-1.5-10.6-5.1h-0.1v16.3h-7V233.8L401.1,233.8"/>
</g>
</svg>
