<?xml version="1.0" standalone="no"?>
<!DOCTYPE svg PUBLIC "-//W3C//DTD SVG 20010904//EN"
 "http://www.w3.org/TR/2001/REC-SVG-20010904/DTD/svg10.dtd">
<svg version="1.0" xmlns="http://www.w3.org/2000/svg"
 width="1200.000000pt" height="630.000000pt" viewBox="0 0 1200.000000 630.000000"
 preserveAspectRatio="xMidYMid meet">

<g transform="translate(0.000000,630.000000) scale(0.100000,-0.100000)"
fill="#000000" stroke="none">
<path d="M4657 5563 c-10 -16 -497 -1073 -497 -1078 0 -3 68 -5 150 -5 l150 0
0 -475 c0 -261 3 -475 8 -475 4 0 23 21 42 47 79 105 222 194 368 228 148 36
379 3 512 -73 129 -73 239 -192 313 -337 34 -68 84 -235 97 -320 12 -90 12
-330 0 -420 -31 -216 -111 -427 -211 -556 -53 -68 -157 -160 -216 -191 -24
-13 -43 -26 -43 -30 0 -5 266 -8 590 -8 325 0 590 4 590 8 0 4 -21 18 -47 31
-59 28 -146 96 -198 152 -169 183 -256 460 -242 769 24 519 252 854 657 962
72 19 110 23 245 23 139 0 170 -3 235 -23 265 -82 426 -281 475 -585 l12 -77
-154 2 -155 3 -24 84 c-64 222 -213 321 -462 309 -84 -4 -109 -10 -166 -36
-232 -108 -350 -412 -316 -809 21 -244 86 -401 207 -499 85 -69 147 -88 293
-89 119 0 128 1 184 30 126 64 218 180 262 335 l22 75 157 5 157 5 695 1500
c382 825 697 1506 700 1513 4 9 -438 12 -2190 12 -1208 0 -2198 -3 -2200 -7z"/>
<path d="M3547 3167 c-323 -700 -589 -1276 -590 -1282 -1 -7 202 -11 591 -13
l592 -2 0 1285 c0 707 -1 1285 -2 1285 -2 0 -268 -573 -591 -1273z"/>
<path d="M4810 3511 c-158 -50 -260 -176 -315 -386 -56 -215 -60 -498 -10
-655 51 -161 126 -257 251 -322 90 -47 160 -62 272 -56 79 4 99 9 165 41 202
100 307 339 307 697 0 402 -117 620 -367 685 -79 21 -233 19 -303 -4z"/>
<path d="M4450 1983 l0 -113 110 0 c61 0 110 4 110 8 0 5 -17 18 -38 30 -38
21 -101 83 -154 152 l-27 35 -1 -112z"/>
<path d="M7350 1959 c-19 -16 -56 -41 -82 -54 -27 -14 -48 -28 -48 -30 0 -3
27 -5 61 -5 l60 0 25 56 c14 31 24 58 22 59 -2 2 -19 -10 -38 -26z"/>
<path d="M4904 1691 c-2 -2 -4 -62 -4 -133 0 -70 -4 -128 -8 -128 -5 0 -17 9
-28 21 -74 82 -233 65 -303 -32 -42 -58 -54 -108 -49 -214 5 -100 26 -154 81
-213 32 -33 105 -62 159 -62 39 0 112 38 131 69 l16 26 1 -37 0 -38 45 0 45 0
-2 371 -3 372 -38 1 c-21 1 -41 -1 -43 -3z m-71 -301 c23 -20 38 -45 46 -74
15 -62 14 -180 -3 -220 -29 -70 -115 -103 -183 -69 -52 26 -73 59 -85 141 -18
114 15 217 76 242 11 5 42 9 68 9 39 1 53 -4 81 -29z"/>
<path d="M2950 1320 l0 -370 46 0 c44 0 46 1 42 25 -6 31 -3 31 33 0 28 -23
86 -45 120 -45 8 0 39 7 67 15 105 32 165 134 166 285 1 69 -4 95 -23 138 -58
129 -193 174 -308 102 -18 -11 -33 -24 -33 -30 0 -5 -4 -10 -10 -10 -6 0 -10
50 -10 130 l0 130 -45 0 -45 0 0 -370z m305 88 c43 -19 68 -72 73 -153 12
-183 -72 -280 -197 -229 -62 26 -91 81 -91 174 0 107 33 189 85 211 30 12 101
11 130 -3z"/>
<path d="M3638 1500 c-86 -15 -132 -57 -153 -142 -7 -27 -6 -28 37 -28 41 0
45 2 57 36 21 59 109 82 186 49 40 -16 59 -54 50 -96 -7 -33 -10 -34 -142 -53
-57 -9 -116 -22 -132 -31 -88 -45 -113 -169 -51 -248 31 -39 99 -61 161 -53
55 7 115 34 145 63 14 15 18 15 22 3 3 -7 16 -24 29 -37 19 -20 32 -24 71 -21
45 3 47 4 50 35 3 28 0 32 -25 35 l-28 3 -5 190 c-3 114 -10 198 -17 210 -22
39 -59 64 -118 80 -64 16 -67 16 -137 5z m179 -341 c-4 -51 -11 -67 -37 -94
-34 -35 -86 -55 -144 -55 -49 0 -86 36 -86 82 0 65 22 79 180 112 100 21 94
24 87 -45z"/>
<path d="M4224 1500 c-41 -9 -100 -46 -110 -68 -6 -13 -9 -9 -13 18 -6 33 -8
35 -48 38 l-43 3 0 -270 0 -271 45 0 45 0 0 163 c1 193 14 248 69 284 37 25
107 31 142 13 43 -23 49 -58 49 -265 l0 -195 45 0 45 0 0 212 c0 191 -2 216
-20 253 -32 66 -125 104 -206 85z"/>
<path d="M5273 1500 c-121 -25 -191 -117 -200 -265 -6 -97 7 -150 50 -207 122
-160 361 -113 402 80 l7 32 -45 0 c-42 0 -46 -2 -52 -30 -10 -44 -57 -87 -105
-95 -52 -9 -107 18 -134 64 -28 48 -34 172 -12 238 24 72 53 96 124 101 51 4
62 1 89 -22 17 -15 34 -40 38 -56 6 -28 10 -30 51 -30 l45 0 -6 38 c-19 109
-130 177 -252 152z"/>
<path d="M5729 1500 c-88 -15 -140 -61 -155 -139 l-6 -31 44 0 c41 0 45 2 57
36 20 57 88 77 174 53 50 -13 75 -64 55 -107 -14 -28 -8 -27 -175 -53 -117
-18 -175 -72 -176 -168 -1 -64 26 -110 83 -139 37 -19 55 -22 103 -18 59 6
121 32 153 63 14 15 18 15 22 3 3 -7 16 -24 29 -37 19 -20 32 -24 71 -21 45 3
47 4 50 35 3 28 0 32 -25 35 l-28 3 -5 192 c-5 173 -7 194 -26 220 -42 58
-150 90 -245 73z m172 -293 c-1 -4 -1 -29 -1 -57 0 -40 -5 -55 -30 -83 -31
-36 -85 -57 -144 -57 -51 0 -86 36 -86 88 0 51 20 68 101 87 35 8 82 18 104
24 44 10 57 9 56 -2z"/>
<path d="M6315 1501 c-45 -11 -92 -38 -109 -63 -16 -22 -16 -22 -16 15 l0 37
-45 0 -45 0 0 -270 0 -270 44 0 44 0 4 183 c2 152 6 187 21 215 36 66 128 93
178 53 24 -19 24 -22 27 -235 l3 -216 44 0 43 0 4 188 c3 162 6 191 22 218 40
67 131 86 177 38 24 -25 24 -29 27 -235 l3 -209 45 0 44 0 0 213 c0 240 -9
276 -71 314 -73 44 -146 37 -223 -22 -32 -24 -46 -30 -49 -20 -9 23 -71 62
-107 68 -19 3 -48 2 -65 -2z"/>
<path d="M7135 1505 c-5 -2 -22 -6 -38 -9 -15 -4 -45 -23 -67 -42 l-40 -36 0
36 c0 35 -1 36 -40 36 l-40 0 0 -380 0 -380 45 0 45 0 0 136 0 137 25 -25 c62
-63 191 -58 265 9 58 52 82 109 88 214 10 179 -57 281 -198 303 -19 3 -39 3
-45 1z m100 -115 c37 -35 58 -110 53 -190 -9 -123 -60 -186 -149 -184 -93 1
-141 64 -140 183 0 95 16 148 57 189 33 33 37 34 94 30 45 -3 66 -10 85 -28z"/>
</g>
</svg>
