<svg fill="#000000" xmlns="http://www.w3.org/2000/svg" viewBox="0 0 100 100" width="100px" height="100px"><path d="M 18 33 A 1.0001 1.0001 0 0 0 17.117188 33.53125 L 0.1171875 65.53125 A 1.0001 1.0001 0 0 0 1 67 L 37 67 A 1.0001 1.0001 0 0 0 37.882812 66.46875 L 54.882812 34.46875 A 1.0001 1.0001 0 0 0 55 33.988281 A 1.0001 1.0001 0 0 0 54 33 L 18 33 z M 55 33.988281 L 55 66 A 0.50005 0.50005 0 0 0 55.5 66.5 L 60.5 66.5 A 0.50005 0.50005 0 0 0 61 66 L 61 64.425781 C 62.790894 66.365032 65.438523 67 67.916016 67 C 71.356789 67 73.937748 65.390874 75.587891 62.980469 C 77.238033 60.570063 78 57.382814 78 54.117188 C 78 50.571978 77.135973 47.311898 75.326172 44.910156 C 73.516371 42.508414 70.738482 41 67.101562 41 C 64.888905 41 62.568912 42.052744 61 43.796875 L 61 33.5 A 0.50005 0.50005 0 0 0 60.5 33 L 55.5 33 A 0.50005 0.50005 0 0 0 55 33.5 L 55 33.988281 z M 56 34 L 60 34 L 60 45.214844 A 0.50005 0.50005 0 0 0 60.931641 45.466797 C 62.156118 43.356391 64.798561 42 67.101562 42 C 70.467645 42 72.888395 43.336711 74.527344 45.511719 C 76.166292 47.686727 77 50.735397 77 54.117188 C 77 57.225561 76.259327 60.228421 74.761719 62.416016 C 73.264111 64.60361 71.052243 66 67.916016 66 C 65.15961 66 62.37371 65.32113 60.933594 62.820312 A 0.50005 0.50005 0 0 0 60 63.070312 L 60 65.5 L 56 65.5 L 56 34 z M 18.601562 35 L 52.335938 35 L 36.398438 65 L 2.6640625 65 L 18.601562 35 z M 20.705078 38 A 0.50005 0.50005 0 0 0 20.263672 38.265625 L 8.0449219 61.265625 A 0.50005 0.50005 0 0 0 8.4863281 62 L 34.294922 62 A 0.50005 0.50005 0 0 0 34.736328 61.734375 L 37.392578 56.734375 A 0.50005 0.50005 0 1 0 36.509766 56.265625 L 33.994141 61 L 9.3183594 61 L 21.005859 39 L 38.5 39 A 0.50005 0.50005 0 1 0 38.5 38 L 20.705078 38 z M 90.115234 41 C 86.497337 41 83.670849 42.480829 81.800781 44.886719 C 79.930714 47.292608 79 50.591431 79 54.253906 C 79 57.83152 79.975685 61.007229 81.847656 63.306641 C 83.719628 65.606052 86.498792 67 89.951172 67 C 92.694618 67 94.96081 66.154616 96.638672 64.535156 C 98.316534 62.915696 99.396039 60.556275 99.900391 57.583984 A 0.50005 0.50005 0 0 0 99.40625 57 L 94.722656 57 A 0.50005 0.50005 0 0 0 94.232422 57.40625 C 93.955877 58.868876 93.428106 60.030081 92.710938 60.806641 C 91.993769 61.5832 91.100278 62 89.951172 62 C 88.099445 62 86.93759 61.072426 86.142578 59.615234 C 85.347567 58.158042 85 56.166956 85 54.253906 C 85 50.728373 85.793357 48.66894 86.800781 47.501953 C 87.808206 46.334967 89.054225 46 90.15625 46 C 91.252639 46 92.121469 46.33057 92.798828 46.933594 C 93.476187 47.536618 93.970431 48.431851 94.222656 49.605469 A 0.50005 0.50005 0 0 0 94.710938 50 L 99.429688 50 A 0.50005 0.50005 0 0 0 99.925781 49.4375 C 99.573912 46.618909 98.367768 44.481808 96.613281 43.076172 C 94.858795 41.670536 92.580174 41 90.115234 41 z M 90.115234 42 C 92.399294 42 94.442268 42.618808 95.988281 43.857422 C 97.405076 44.992511 98.352581 46.726195 98.763672 49 L 95.058594 49 C 94.745627 47.856041 94.235854 46.871945 93.464844 46.185547 C 92.599953 45.415571 91.459861 45 90.15625 45 C 88.840275 45 87.259544 45.440346 86.042969 46.849609 C 84.826393 48.258873 84 50.57844 84 54.253906 C 84 56.284857 84.348886 58.415395 85.265625 60.095703 C 86.182364 61.776011 87.745899 63 89.951172 63 C 91.354066 63 92.559482 62.445519 93.445312 61.486328 C 94.24879 60.616312 94.770881 59.402126 95.091797 58 L 98.740234 58 C 98.222284 60.505753 97.311438 62.495879 95.945312 63.814453 C 94.462924 65.245243 92.492726 66 89.951172 66 C 86.763551 66 84.317076 64.756619 82.623047 62.675781 C 80.929018 60.594943 80 57.649293 80 54.253906 C 80 50.761382 80.893911 47.68186 82.589844 45.5 C 84.285776 43.31814 86.765132 42 90.115234 42 z M 42.785156 44.994141 A 0.50005 0.50005 0 0 0 42.353516 45.265625 L 41.822266 46.265625 A 0.50005 0.50005 0 1 0 42.705078 46.734375 L 43.236328 45.734375 A 0.50005 0.50005 0 0 0 42.785156 44.994141 z M 66.542969 45.5 C 64.406358 45.5 62.704894 46.421038 61.611328 47.986328 C 60.517762 49.551618 60 51.718919 60 54.273438 C 60 56.701771 60.564604 58.855396 61.673828 60.435547 C 62.783052 62.015697 64.473108 63 66.542969 63 C 68.869906 63 70.554768 61.836019 71.572266 60.173828 C 72.589764 58.511638 73 56.373973 73 54.273438 C 72.998962 52.068354 72.475844 49.913087 71.40625 48.269531 C 70.336656 46.625976 68.670364 45.5 66.542969 45.5 z M 66.542969 46.5 C 68.327573 46.5 69.637454 47.385962 70.568359 48.816406 C 71.499265 50.246851 71.999038 52.22852 72 54.273438 C 72 56.240901 71.598705 58.216081 70.720703 59.650391 C 69.842701 61.0847 68.550032 62 66.542969 62 C 64.77983 62 63.445713 61.219678 62.492188 59.861328 C 61.538662 58.502979 61 56.545104 61 54.273438 C 61 51.855955 61.503707 49.886804 62.431641 48.558594 C 63.359574 47.230384 64.681579 46.5 66.542969 46.5 z M 41.191406 47.994141 A 0.50005 0.50005 0 0 0 40.759766 48.265625 L 38.634766 52.265625 A 0.50005 0.50005 0 1 0 39.517578 52.734375 L 41.642578 48.734375 A 0.50005 0.50005 0 0 0 41.191406 47.994141 z"/></svg>